# xmcd CD database file
#
# Track frame offsets:
#	150
#	13949
#	30524
#	45449
#	59999
#	77376
#	93029
#	106349
#	118544
#	134399
#	145199
#	160049
#	175499
#	187124
#	201224
#	212939
#	226941
#	238266
#	249816
#	263564
#	276411
#
# Disc length: 3859 seconds
#
# Revision: 0
# Processed by: cddbd v1.5.2PL0 Copyright (c) Steve Scherf et al.
# Submitted via: CDex 1.77
#
DISCID=260f1115
DTITLE=Various Artist - Simply The Best British Jazz from the 1950s
DYEAR=1900
DGENRE=Jazz
TTITLE0=Humprey Lyttelton and his Band - Under the Double Eagle
TTITLE1=Humprey Lyttelton and his Band - My Gal Sal
TTITLE2=Humprey Lyttelton and his Band - Small Hour Fantasy
TTITLE3=Humprey Lyttelton and his Band - Its A Lowdown Dirty Shame
TTITLE4=Harry Gold and His Pieces of Eight - Miss Jenny's Ball
TTITLE5=Harry Gold and His Pieces of Eight - Jazz Me Blues
TTITLE6=Ken Coyler's Jazzmen - Heebie Jeebies
TTITLE7=Ken Coyler's Jazzmen - Papa Dip
TTITLE8=Chris Barber's Jazz Band - See See Rider
TTITLE9=Chris Barber's Jazz Band - Black Cat On The Fence
TTITLE10=Chris Barber's Jazz Band - Royal Telephone
TTITLE11=Chris Barber's Jazz Band - Everywhere You Go
TTITLE12=Lonnie Donegan's Skiffle Group - Midnight Special
TTITLE13=Lonnie Donegan's Skiffle Group - In The Evening When The Sun Goes Down
TTITLE14=Christie Brothers Stompers - All Of Me
TTITLE15=Christie Brothers Stompers - 'Swonderful
TTITLE16=Ray Foxley's Original Levee Ramblers - Granpa's Spells
TTITLE17=Ray Foxley's Original Levee Ramblers - Dead Man's Blues
TTITLE18=The Original Crane River Jazz Band - Dauphine Street Blues
TTITLE19=The Original Crane River Jazz Band - Blanche Touquatoux
TTITLE20=The Original Crane River Jazz Band - Eh La Bas!
EXTD=
EXTT0=
EXTT1=
EXTT2=
EXTT3=
EXTT4=
EXTT5=
EXTT6=
EXTT7=
EXTT8=
EXTT9=
EXTT10=
EXTT11=
EXTT12=
EXTT13=
EXTT14=
EXTT15=
EXTT16=
EXTT17=
EXTT18=
EXTT19=
EXTT20=
PLAYORDER=
